<?xml version="1.0" encoding="utf-8"?>
<!-- Generator: Adobe Illustrator 16.0.0, SVG Export Plug-In . SVG Version: 6.00 Build 0)  -->
<!DOCTYPE svg PUBLIC "-//W3C//DTD SVG 1.1//EN" "http://www.w3.org/Graphics/SVG/1.1/DTD/svg11.dtd">
<svg version="1.1" id="Layer_1" xmlns="http://www.w3.org/2000/svg" xmlns:xlink="http://www.w3.org/1999/xlink" x="0px" y="0px"
	 width="67px" height="67px" viewBox="0 0 67 67" enable-background="new 0 0 67 67" xml:space="preserve">
<rect x="0.04" y="0.04" fill="#F8EC68" width="66.96" height="66.96"/>
<path fill="#1D1D1B" d="M28.777,51.701h7.52V33.498h5.02l0.664-6.272h-5.684l0.008-3.141c0-1.635,0.158-2.513,2.504-2.513h3.137
	v-6.274h-5.02c-6.028,0-8.149,3.044-8.149,8.161v3.767H25.02v6.273h3.757V51.701z M33.5,66.961c-18.479,0-33.46-14.982-33.46-33.461
	c0-18.48,14.981-33.46,33.46-33.46c18.479,0,33.461,14.98,33.461,33.46C66.961,51.979,51.979,66.961,33.5,66.961z"/>
</svg>
