<?xml version="1.0" encoding="utf-8"?>
<!-- Generator: Adobe Illustrator 16.0.0, SVG Export Plug-In . SVG Version: 6.00 Build 0)  -->
<!DOCTYPE svg PUBLIC "-//W3C//DTD SVG 1.1//EN" "http://www.w3.org/Graphics/SVG/1.1/DTD/svg11.dtd">
<svg version="1.1" id="Layer_1" xmlns="http://www.w3.org/2000/svg" xmlns:xlink="http://www.w3.org/1999/xlink" x="0px" y="0px"
	 width="67px" height="67px" viewBox="0 0 67 67" enable-background="new 0 0 67 67" xml:space="preserve">
<rect x="0.04" y="0.04" fill="#F8EC68" width="66.96" height="66.96"/>
<path fill="#1D1D1B" d="M33.5,0.081C15.043,0.081,0.08,15.042,0.08,33.5c0,18.458,14.963,33.42,33.42,33.42S66.92,51.957,66.92,33.5
	C66.92,15.042,51.957,0.081,33.5,0.081z M53.956,35.15L53.956,35.15c-0.001,3.531-0.411,7.063-0.411,7.063s-0.398,3.008-1.625,4.33
	c-1.557,1.736-3.299,1.746-4.098,1.85C42.096,48.83,33.5,48.846,33.5,48.846s-2.31-0.022-5.107-0.08v-7.594L41.18,33.5
	l-12.789-7.673v13.97h-0.002l0.004,8.969c-3.207-0.066-7.055-0.179-8.803-0.357c-0.91-0.182-2.953-0.131-4.51-1.865
	c-1.227-1.322-1.625-4.332-1.625-4.332s-0.41-3.529-0.41-7.063v-3.311c0-3.532,0.41-7.062,0.41-7.062s0.398-3.01,1.625-4.334
	c1.557-1.737,3.299-1.748,4.098-1.845c5.725-0.444,14.313-0.444,14.313-0.444h0.018c0,0,8.589,0,14.313,0.444
	c0.8,0.098,2.541,0.108,4.099,1.845c1.228,1.325,1.625,4.334,1.625,4.334s0.41,3.53,0.41,7.063V35.15z"/>
</svg>
