<?xml version="1.0" encoding="utf-8"?>
<!-- Generator: Adobe Illustrator 16.0.0, SVG Export Plug-In . SVG Version: 6.00 Build 0)  -->
<!DOCTYPE svg PUBLIC "-//W3C//DTD SVG 1.1//EN" "http://www.w3.org/Graphics/SVG/1.1/DTD/svg11.dtd">
<svg version="1.1" id="Layer_1" xmlns="http://www.w3.org/2000/svg" xmlns:xlink="http://www.w3.org/1999/xlink" x="0px" y="0px"
	 width="67px" height="67px" viewBox="0 0 67 67" enable-background="new 0 0 67 67" xml:space="preserve">
<rect x="0.04" y="0.04" fill="#F8EC68" width="66.96" height="66.96"/>
<path fill="#1D1D1B" d="M41.771,7.068c-5.908,2.15-9.643,7.692-9.216,13.762l0.143,2.341l-2.365-0.286
	c-8.6-1.097-16.117-4.824-22.5-11.087L4.711,8.692l-0.801,2.293c-1.701,5.116-0.613,10.518,2.93,14.148
	c1.889,2.009,1.465,2.295-1.793,1.098c-1.137-0.38-2.129-0.666-2.227-0.524c-0.328,0.335,0.805,4.683,1.701,6.404
	c1.229,2.39,3.735,4.729,6.477,6.117l2.318,1.101l-2.742,0.046c-2.645,0-2.738,0.049-2.455,1.053
	c0.945,3.108,4.678,6.406,8.838,7.842l2.93,1.002l-2.549,1.528c-3.781,2.203-8.225,3.441-12.67,3.533
	c-2.129,0.049-3.879,0.24-3.879,0.386c0,0.477,5.768,3.15,9.123,4.205c10.068,3.106,22.027,1.766,31.009-3.538
	c6.381-3.774,12.762-11.278,15.74-18.544c1.607-3.869,3.217-10.944,3.217-14.335c0-2.201,0.141-2.487,2.789-5.113
	c1.559-1.529,3.021-3.203,3.309-3.679c0.471-0.91,0.422-0.91-1.988-0.097c-4.018,1.432-4.586,1.243-2.6-0.908
	c1.469-1.529,3.217-4.302,3.217-5.115c0-0.141-0.709,0.097-1.514,0.526c-0.85,0.478-2.742,1.196-4.16,1.624l-2.553,0.815
	l-2.314-1.58c-1.276-0.859-3.069-1.815-4.018-2.102C47.635,6.208,43.945,6.301,41.771,7.068z"/>
</svg>
